<?xml version="1.0" encoding="iso-8859-1"?>
<!-- Generator: Adobe Illustrator 17.1.0, SVG Export Plug-In . SVG Version: 6.00 Build 0)  -->
<!DOCTYPE svg PUBLIC "-//W3C//DTD SVG 1.1//EN" "http://www.w3.org/Graphics/SVG/1.1/DTD/svg11.dtd">
<svg version="1.1" id="Capa_1" xmlns="http://www.w3.org/2000/svg" xmlns:xlink="http://www.w3.org/1999/xlink" x="0px" y="0px"
	 viewBox="0 0 208.046 208.046" style="enable-background:new 0 0 208.046 208.046;" xml:space="preserve">
<path d="M188.911,28.331c-0.556-1.615-2.075-2.7-3.783-2.7h-37.134l11.192-19.65c1.094-1.92,0.424-4.362-1.496-5.455
	c-1.92-1.095-4.361-0.423-5.455,1.496l-13.446,23.609H22.917c-1.708,0-3.228,1.085-3.783,2.7c-0.555,1.615-0.022,3.405,1.325,4.455
	l79.563,61.987v90.211l-43.854,15.283c-1.843,0.643-2.953,2.521-2.628,4.445c0.326,1.924,1.993,3.332,3.944,3.332h93.074
	c0.007,0.001,0.015,0.001,0.02,0c2.21,0,4-1.791,4-4c0-1.834-1.234-3.38-2.918-3.853l-43.638-15.207V94.773l79.563-61.987
	C188.934,31.736,189.466,29.946,188.911,28.331z M50.999,46.438L34.56,33.631h99.672l-7.294,12.808H50.999z M157.047,46.438h-20.903
	l7.294-12.808h30.048L157.047,46.438z"/>
<g>
</g>
<g>
</g>
<g>
</g>
<g>
</g>
<g>
</g>
<g>
</g>
<g>
</g>
<g>
</g>
<g>
</g>
<g>
</g>
<g>
</g>
<g>
</g>
<g>
</g>
<g>
</g>
<g>
</g>
</svg>
